Coordinates
version=1
nRows=5
nColumns=46
inDegrees=yes

Units are S.I. units (second, meters, Newtons, ...)
Angles are in degrees.

endheader
time	pelvis_tilt	pelvis_list	pelvis_rotation	pelvis_tx	pelvis_ty	pelvis_tz	bb_angle	bb_tx	bb_ty	bb_tz	hip_flexion_r	hip_adduction_r	hip_rotation_r	knee_angle_r	knee_angle_r_beta	ankle_angle_r	subtalar_angle_r	mtp_angle_r	crank_angle_r	hip_flexion_l	hip_adduction_l	hip_rotation_l	knee_angle_l	knee_angle_l_beta	ankle_angle_l	subtalar_angle_l	mtp_angle_l	crank_angle_l	lumbar_extension	lumbar_bending	lumbar_rotation	arm_flex_r	arm_add_r	arm_rot_r	elbow_flex_r	pro_sup_r	wrist_flex_r	wrist_dev_r	arm_flex_l	arm_add_l	arm_rot_l	elbow_flex_l	pro_sup_l	wrist_flex_l	wrist_dev_l
      7.50000000	    -28.00731484	      4.29832166	    -16.54378370	      0.42346685	      1.16474026	     -0.23078127	      0.00000000	      0.50000000	      0.00000000	      0.25000000	     60.33862128	      5.26358803	     11.59708351	     60.67970033	      1.05906056	     15.00384227	     -4.00184641	      0.00000000	      0.00000000	     39.89429424	     -5.85268190	     -4.76486711	     62.53471555	      1.09143668	    -20.53203131	     -9.30877200	      0.00000000	      0.00000000	    -56.79286002	     -6.79599127	      5.47396330	     56.49863962	    -22.45216768	     37.49527411	     77.78163033	     59.09139805	      0.00000000	      0.00000000	     45.50925996	    -22.98662432	     19.72892156	     72.69978015	     51.22442661	      0.00000000	      0.00000000
      7.50500000	    -27.64795700	      5.09737349	    -16.35399643	      0.42386314	      1.16352691	     -0.23002002	      0.00000000	      0.50000000	      0.00000000	      0.25000000	     58.79546737	      4.39201714	     12.35732177	     58.11120967	      1.01423194	     14.12452446	     -3.88542620	      0.00000000	      0.00000000	     40.73026001	     -5.02177558	     -4.84333877	     65.05560765	      1.13543455	    -19.26112565	     -9.39560690	      0.00000000	      0.00000000	    -56.85473439	     -7.96049451	      8.07596258	     52.62554604	    -27.26089457	     33.59466341	     82.70900484	     59.58956660	      0.00000000	      0.00000000	     49.70033769	    -19.67379246	     24.88009384	     67.31193443	     51.28126775	      0.00000000	      0.00000000
      7.51000000	    -27.34339534	      5.96050356	    -16.04563491	      0.42428308	      1.16217448	     -0.22929590	      0.00000000	      0.50000000	      0.00000000	      0.25000000	     57.30191000	      3.41803456	     13.17479565	     55.57588138	      0.96998211	     13.36330819	     -3.62717404	      0.00000000	      0.00000000	     41.67782935	     -4.10918273	     -4.95770044	     67.52505776	      1.17853459	    -18.42256153	     -9.72015227	      0.00000000	      0.00000000	    -56.88799412	     -8.64778761	      7.27615803	     52.38045536	    -27.56779948	     33.52632614	     82.61513214	     59.57407891	      0.00000000	      0.00000000	     49.64195533	    -19.52376785	     25.02357685	     67.28130585	     51.30231401	      0.00000000	      0.00000000
      7.51500000	    -27.05235780	      6.80632730	    -15.67923133	      0.42477689	      1.16069393	     -0.22861508	      0.00000000	      0.50000000	      0.00000000	      0.25000000	     55.83516486	      2.35492991	     13.87280292	     53.08623309	      0.92652955	     12.46213447	     -3.55318840	      0.00000000	      0.00000000	     42.67569457	     -3.23463284	     -5.10562779	     70.03079403	      1.22226793	    -17.32809009	    -10.00750172	      0.00000000	      0.00000000	    -56.89025848	     -9.27276760	      6.46976310	     52.09217540	    -27.95809837	     33.45855239	     82.52652580	     59.56071943	      0.00000000	      0.00000000	     49.70588079	    -19.42880557	     25.15882069	     67.27093802	     51.32352343	      0.00000000	      0.00000000
      7.52000000	    -27.04468492	      7.25785574	    -15.17039867	      0.42489727	      1.15893618	     -0.22765533	      0.00000000	      0.50000000	      0.00000000	      0.25000000	     54.40492181	      1.69859536	     14.34002648	     50.40167734	      0.87967522	     10.53635069	     -4.90381770	      0.00000000	      0.00000000	     43.99061138	     -2.76465983	     -4.86029967	     72.70549381	      1.26895025	    -15.45624375	     -9.40811805	      0.00000000	      0.00000000	    -56.67207609	     -9.75387044	      7.38447436	     50.26107071	    -30.42964222	     32.06343438	     84.50280761	     59.81990436	      0.00000000	      0.00000000	     51.59051106	    -18.45535945	     28.09338162	     65.43013149	     51.76277772	      0.00000000	      0.00000000
